# xmcd CD database file
#
# Track frame offsets:
#	150
#	17557
#	32177
#	47162
#	62045
#	77032
#	97812
#	115542
#	129320
#	143110
#	158280
#	180027
#
# Disc length: 2591 seconds
#
# Revision: 0
# Processed by: cddbd v1.5PL3 Copyright (c) Steve Scherf et al.
# Submitted via: cdripper 1.0.9
#
DISCID=810a1d0c
DTITLE=Various Artist - Cafe Jazz
DYEAR=2003
DGENRE=Jazz
TTITLE0=Nuthin' Fancy
TTITLE1=Purple Onion
TTITLE2=Left Coast Bop
TTITLE3=Jazz Avenue
TTITLE4=Scattin'
TTITLE5=Lation Blue
TTITLE6=Miles To Go
TTITLE7=Organomics
TTITLE8='Nuff Said
TTITLE9=Soul Crusader
TTITLE10=Cool Vibes
TTITLE11=Jazz Messenger
EXTD=YEAR: 2003
EXTT0=
EXTT1=
EXTT2=
EXTT3=
EXTT4=
EXTT5=
EXTT6=
EXTT7=
EXTT8=
EXTT9=
EXTT10=
EXTT11=
PLAYORDER=
